C:\Users\u0150099\Documents\master_thesis\ReferenceData\reference_data\IK\subject1_Maarten_withMTP_scaled//IK_average.mot
version=1
nRows=14
nColumns=32
inDegrees=no
endheader
                time	         pelvis_tilt	         pelvis_list	     pelvis_rotation	           pelvis_tx	           pelvis_ty	           pelvis_tz	       hip_flexion_l	     hip_adduction_l	      hip_rotation_l	       hip_flexion_r	     hip_adduction_r	      hip_rotation_r	        knee_angle_l	        knee_angle_r	       ankle_angle_l	       ankle_angle_r	    subtalar_angle_l	    subtalar_angle_r	         mtp_angle_l	         mtp_angle_r	    lumbar_extension	      lumbar_bending	     lumbar_rotation	          arm_flex_l	           arm_add_l	           arm_rot_l	          arm_flex_r	           arm_add_r	           arm_rot_r	        elbow_flex_l	        elbow_flex_r	
          0.51904040	          0.02126807	         -0.04731802	         -0.05691418	          0.67032795	          0.90105818	          0.00494993	          0.43019732	         -0.01750293	         -0.12689971	         -0.35051631	          0.09122681	          0.00929320	         -0.11121908	         -0.14281635	          0.02749763	          0.21436435	          0.05217891	          0.13320496	          0.21337198	          0.12345089	         -0.12897577	          0.04411999	          0.12846417	         -0.15349550	         -0.23949713	          0.17010857	          0.05934812	         -0.36753490	          0.21955327	          0.21529719	          0.65420564	
          0.52942121	          0.02126723	         -0.04425688	         -0.05831664	          0.68563947	          0.89965219	          0.00445118	          0.43184926	         -0.01221528	         -0.12553077	         -0.35702641	          0.08435266	          0.00513180	         -0.12951645	         -0.16264794	          0.01888580	          0.20311587	          0.04478786	          0.14301205	          0.20743677	          0.14747051	         -0.12535606	          0.03952360	          0.12940080	         -0.15570366	         -0.23962803	          0.17540517	          0.05419802	         -0.36547660	          0.21520179	          0.21084618	          0.65463060	
          0.53980202	          0.02095065	         -0.03976497	         -0.05919173	          0.70117480	          0.89837300	          0.00391356	          0.43341357	         -0.00523463	         -0.12214425	         -0.36121090	          0.07599142	         -0.00022714	         -0.15204366	         -0.18575960	          0.00664158	          0.18745221	          0.03171319	          0.15268170	          0.20153150	          0.17735019	         -0.12080155	          0.03323092	          0.12947693	         -0.15794884	         -0.24029863	          0.18100497	          0.04786041	         -0.36258015	          0.21049591	          0.20703744	          0.65401066	
          0.55018283	          0.02027294	         -0.03374172	         -0.05942018	          0.71687932	          0.89724295	          0.00332625	          0.43490653	          0.00355678	         -0.11686624	         -0.36276022	          0.06609766	         -0.00665208	         -0.17740001	         -0.21235311	         -0.00897819	          0.16667744	          0.01396584	          0.16157849	          0.19594240	          0.21345647	         -0.11538253	          0.02515521	          0.12853935	         -0.16014024	         -0.24149577	          0.18668922	          0.04057890	         -0.35882589	          0.20556710	          0.20389174	          0.65217561	
          0.56056364	          0.01921227	         -0.02615377	         -0.05890846	          0.73268767	          0.89628758	          0.00267995	          0.43639024	          0.01418916	         -0.10989227	         -0.36133407	          0.05469007	         -0.01391109	         -0.20451185	         -0.24268530	         -0.02697940	          0.14015213	         -0.00711052	          0.16894494	          0.19102976	          0.25583876	         -0.10923566	          0.01528893	          0.12647995	         -0.16214892	         -0.24319433	          0.19224253	          0.03261372	         -0.35422549	          0.20055528	          0.20144802	          0.64898356	
          0.57094444	          0.01778256	         -0.01707422	         -0.05763071	          0.74852908	          0.89552792	          0.00197075	          0.43790707	          0.02656173	         -0.10151347	         -0.35663128	          0.04187603	         -0.02167673	         -0.23261010	         -0.27699061	         -0.04566215	          0.10748175	         -0.02990062	          0.17402521	          0.18708321	          0.30405688	         -0.10256723	          0.00374804	          0.12329489	         -0.16382275	         -0.24535422	          0.19749361	          0.02420666	         -0.34884777	          0.19558650	          0.19976534	          0.64438677	
          0.58132525	          0.01603960	         -0.00666987	         -0.05564826	          0.76433584	          0.89497896	          0.00120179	          0.43937368	          0.04046349	         -0.09211613	         -0.34841710	          0.02783081	         -0.02955276	         -0.26106824	         -0.31545747	         -0.06304094	          0.06863215	         -0.05273893	          0.17616887	          0.18413958	          0.35706584	         -0.09563533	         -0.00924339	          0.11909707	         -0.16500623	         -0.24792331	          0.20232212	          0.01555019	         -0.34281497	          0.19075964	          0.19891902	          0.63844787	
          0.59170606	          0.01408235	          0.00482451	         -0.05312379	          0.78004719	          0.89464944	          0.00038449	          0.44050846	          0.05559954	         -0.08220277	         -0.33654485	          0.01276996	         -0.03708261	         -0.28918870	         -0.35819577	         -0.07727176	          0.02408443	         -0.07413371	          0.17490875	          0.18191963	          0.41291015	         -0.08873466	         -0.02338617	          0.11411049	         -0.16555705	         -0.25083918	          0.20662838	          0.00679674	         -0.33629094	          0.18616327	          0.19900300	          0.63130922	
          0.60208687	          0.01203986	          0.01713250	         -0.05031407	          0.79560853	          0.89454324	         -0.00046144	          0.44084736	          0.07161502	         -0.07237700	         -0.32095045	         -0.00306081	         -0.04374487	         -0.31612028	         -0.40521340	         -0.08691619	         -0.02500925	         -0.09289860	          0.16997809	          0.17989596	          0.46835466	         -0.08217460	         -0.03833983	          0.10863489	         -0.16536002	         -0.25403117	          0.21027603	         -0.00190787	         -0.32946275	          0.18190203	          0.20013464	          0.62314510	
          0.61246768	          0.01005138	          0.02994195	         -0.04755677	          0.81097255	          0.89465762	         -0.00130739	          0.43983734	          0.08809022	         -0.06329395	         -0.30169637	         -0.01936960	         -0.04898223	         -0.34093757	         -0.45632485	         -0.09114686	         -0.07669898	         -0.10827968	          0.16134800	          0.17748384	          0.51908340	         -0.07624354	         -0.05373605	          0.10301131	         -0.16434742	         -0.25742081	          0.21308855	         -0.01039153	         -0.32252067	          0.17813227	          0.20243317	          0.61410621	
          0.62284848	          0.00823101	          0.04293555	         -0.04521247	          0.82609641	          0.89498703	         -0.00211866	          0.43697705	          0.10457417	         -0.05557866	         -0.27889468	         -0.03581251	         -0.05224516	         -0.36280480	         -0.51118039	         -0.08973361	         -0.12847740	         -0.11988313	          0.14907826	          0.17419309	          0.56075232	         -0.07116803	         -0.06921508	          0.09754927	         -0.16248951	         -0.26093382	          0.21490971	         -0.01843788	         -0.31563217	          0.17508099	          0.20599784	          0.60427142	
          0.63322929	          0.00665346	          0.05579173	         -0.04362272	          0.84094244	          0.89552425	         -0.00285688	          0.43190040	          0.12059369	         -0.04976555	         -0.25269889	         -0.05197664	         -0.05305858	         -0.38107407	         -0.56923750	         -0.08299593	         -0.17756848	         -0.12760399	          0.13323635	          0.16972229	          0.59024845	         -0.06709356	         -0.08442676	          0.09249074	         -0.15978820	         -0.26450508	          0.21569620	         -0.02579294	         -0.30893391	          0.17305008	          0.21087566	          0.59363676	
          0.64361010	          0.00535620	          0.06818207	         -0.04307411	          0.85548073	          0.89626175	         -0.00348384	          0.42440255	          0.13567088	         -0.04625429	         -0.22331072	         -0.06738180	         -0.05109652	         -0.39532389	         -0.62974082	         -0.07168920	         -0.22123005	         -0.13153990	          0.11392530	          0.16401361	          0.60629693	         -0.06408407	         -0.09902350	          0.08799231	         -0.15627918	         -0.26808201	          0.21553251	         -0.03219706	         -0.30253525	          0.17238464	          0.21706593	          0.58214233	
          0.65399091	          0.00434726	          0.07976502	         -0.04376643	          0.86969230	          0.89719279	         -0.00396694	          0.41443097	          0.14934567	         -0.04526879	         -0.19100000	         -0.08149196	         -0.04623526	         -0.40536515	         -0.69170439	         -0.05684035	         -0.25701589	         -0.13192856	          0.09141462	          0.15726740	          0.60942966	         -0.06213171	         -0.11264480	          0.08411990	         -0.15203660	         -0.27162471	          0.21457876	         -0.03742758	         -0.29652879	          0.17341704	          0.22454926	          0.56971630	
